<svg width="71" height="70" viewBox="0 0 71 70" fill="none" xmlns="http://www.w3.org/2000/svg">
<path d="M35.5 70C54.83 70 70.5 54.33 70.5 35C70.5 15.67 54.83 0 35.5 0C16.17 0 0.5 15.67 0.5 35C0.5 54.33 16.17 70 35.5 70Z" fill="#FF4C4D"/>
<path d="M57.9078 18.4786C55.885 16.1397 52.8507 14.4963 49.3741 14.117C49.1845 14.117 49.058 14.117 48.8684 14.0537C48.8684 14.0537 41.2196 13.2952 35.4673 19.174C29.2724 13.1056 22.0661 14.0537 22.0661 14.0537C21.8765 14.0537 21.7501 14.0537 21.5604 14.117C18.147 14.4963 15.1128 16.1397 13.09 18.4786C4.80908 28.1502 11.4464 43.5109 18.6527 54.8259C19.348 55.9638 20.6123 56.6592 22.0029 56.6592H22.0661C25.1004 56.6592 26.9967 53.3721 25.4797 50.7804C23.5201 47.4301 22.1294 44.9016 22.1294 44.9016C22.1294 44.9016 16.377 33.5865 18.2102 26.8227C18.8423 24.5471 20.8652 22.9036 23.204 22.6507C26.4279 22.3346 31.8641 23.2829 35.5305 31.8165C39.1969 23.2829 44.5698 22.2714 47.7937 22.6507C50.1326 22.9036 52.2187 24.5471 52.7875 26.8227C54.5576 33.5865 48.8684 44.9016 48.8684 44.9016C48.8684 44.9016 47.4776 47.4301 45.5181 50.7804C44.001 53.3721 45.8974 56.6592 48.9316 56.6592H49.058C50.3854 56.6592 51.6498 55.9638 52.4082 54.8259C59.5514 43.5109 66.1886 28.1502 57.9078 18.4786Z" fill="white"/>
</svg>
