<svg width="32" height="32" viewBox="0 0 32 32" fill="none" xmlns="http://www.w3.org/2000/svg">
<path fill-rule="evenodd" clip-rule="evenodd" d="M8.72709 28.5928C7.95532 26.2776 6.58026 24.2101 4.74359 22.6032L2.52966 20.6662C1.62104 19.8713 1.5289 18.4903 2.32385 17.5816C3.11881 16.673 4.49982 16.5809 5.40844 17.3758L7.62237 19.3128C10.044 21.4315 11.8571 24.1576 12.8747 27.2101C13.2565 28.3555 12.6375 29.5935 11.4922 29.9753C10.3469 30.3571 9.1089 29.7381 8.72709 28.5928Z" fill="white"/>
<path fill-rule="evenodd" clip-rule="evenodd" d="M30.609 6.60144C23.2517 12.2275 17.338 19.5227 13.3562 27.885L12.8106 29.0309C12.2916 30.1209 10.9872 30.5838 9.89713 30.0647C8.80711 29.5457 8.34423 28.2413 8.86326 27.1513L9.40887 26.0054C13.6888 17.0171 20.0452 9.1757 27.9533 3.1285C28.9124 2.39514 30.2843 2.57809 31.0177 3.53712C31.751 4.49615 31.5681 5.86809 30.609 6.60144Z" fill="white"/>
</svg>
